<svg xmlns="http://www.w3.org/2000/svg" viewBox="0 0 28 22" width="28" height="22" class="Header-langIcon"><path fill="currentColor" fill-rule="evenodd" d="M12,5.0000127 L12,9 L18,9 L18,12 L12.2927062,12 C12.847937,13.858339 14.1997637,15.6390683 16.4051522,17.3617431 L14.5584098,19.7259644 C12.9871676,18.4986344 11.7403138,17.1976122 10.8290235,15.826734 C9.55918296,18.5358906 7.26558309,20.8377252 3.99238314,22.7020471 L2.50761686,20.0952351 C6.296618,17.9371274 8.38153788,15.2658259 8.88133712,12 L3,12 L3,9 L9,9 L9,5.00022811 L9,5.00006369 L12,5 Z M20.1721734,23.5 L19.1999512,27 L16,27 L21,9 L24.1999512,9 L25,9 L30,27 L26.8000488,27 L25.8278266,23.5 L20.1721734,23.5 Z M20.9360623,20.75 L25.0639377,20.75 L23,13.3198242 L20.9360623,20.75 Z" transform="translate(-2 -5)"></path></svg>