<svg xmlns="http://www.w3.org/2000/svg" viewBox="0 0 36 30" width="36" height="30" class="Twitter-icon"><path d="M31.8 8.5v-1c1.4-1 2.7-2.4 3.7-4-1.3.7-2.8 1-4.2 1.2 1.5-1 2.6-2.4 3.2-4-1.4.7-3 1.4-4.6 1.7C28.3 1 26.4 0 24.3 0c-4 0-7.2 3.4-7.2 7.6 0 .6 0 1 .2 1.7-6-.3-11.4-3.3-15-8-.7 1.2-1 2.5-1 4 0 2.5 1.3 4.8 3.2 6.2-1.2 0-2.3-.4-3.3-1 0 3.8 2.5 7 6 7.6l-2 .4H4c1 3 3.6 5 6.8 5.2-2.5 2-5.7 3.2-9 3.2H0c3.2 2 7 3.3 11.2 3.3 13.3 0 20.6-11.4 20.6-21.4z" fill="#FFF" fill-rule="evenodd"></path></svg>